<svg viewBox="0 0 20.6716 20.6716" xmlns="http://www.w3.org/2000/svg" xmlns:xlink="http://www.w3.org/1999/xlink" width="20.671631" height="20.671631" fill="none" customFrame="#000000">
	<rect id="Button → Img - Комментировать" width="20.671633" height="20.671633" x="0.000000" y="0.000122" />
	<path id="Vector" d="M18.7808 8.65877C18.3719 6.60797 17.2304 4.77617 15.5696 3.50556C13.9087 2.23495 11.842 1.61245 9.7557 1.75435C7.66937 1.89625 5.70604 2.79284 4.23251 4.27664C2.75898 5.76043 1.87603 7.72993 1.74861 9.8172C1.62119 11.9045 2.25801 13.9668 3.54012 15.6188C4.82222 17.2708 6.66191 18.3995 8.71549 18.7942C10.7691 19.1888 12.8961 18.8223 14.6992 17.7631L18.9489 18.9492L17.7913 14.6495C18.8379 12.8391 19.1897 10.7096 18.7808 8.65877Z" fill-rule="nonzero" stroke="rgb(0,0,0)" stroke-linejoin="round" stroke-width="1.7226361" />
</svg>
