<svg viewBox="0 0 24 24" xmlns="http://www.w3.org/2000/svg" xmlns:xlink="http://www.w3.org/1999/xlink" width="24.000000" height="24.000000" fill="none" customFrame="#000000">
	<rect id="Img - Новая публикация" width="24.000000" height="24.000000" x="0.000000" y="0.000000" />
	<path id="Vector" d="M2 15.45C2 18.299 2.698 19.455 3.606 20.394C4.546 21.303 5.704 22.002 8.552 22.002L15.448 22.002C18.296 22.002 19.454 21.302 20.394 20.394C21.302 19.455 22 18.3 22 15.45L22 8.552C22 5.703 21.302 4.546 20.394 3.607C19.454 2.7 18.296 2 15.448 2L8.552 2C5.704 2 4.546 2.699 3.606 3.607C2.698 4.547 2 5.703 2 8.552L2 12L2 15.45Z" fill-rule="nonzero" stroke="rgb(0,0,0)" stroke-linecap="round" stroke-linejoin="round" stroke-width="2" />
	<path id="Vector" d="M6.545 12.001L17.455 12.001" stroke="rgb(0,0,0)" stroke-linecap="round" stroke-linejoin="round" stroke-width="2" />
	<path id="Vector" d="M0 0L10.91 0" stroke="rgb(0,0,0)" stroke-linecap="round" stroke-linejoin="round" stroke-width="2" transform="matrix(0,1,-1,0,12.003,6.54498)" />
</svg>
