<svg viewBox="0 0 20.6716 20.6716" xmlns="http://www.w3.org/2000/svg" xmlns:xlink="http://www.w3.org/1999/xlink" width="20.671631" height="20.671631" fill="none" customFrame="#000000">
	<rect id="Button → Img - Нравится" width="20.671633" height="20.671633" x="0.000015" y="0.000122" />
	<path id="Vector" d="M14.4633 3.36263C15.5954 3.42522 16.657 3.93274 17.4165 4.77459C18.1761 5.61644 18.5722 6.72439 18.5184 7.85699C18.5184 10.503 16.2342 12.1283 14.0421 14.0774C11.8785 16.0094 10.7131 17.0653 10.3359 17.3091C9.92502 17.0429 8.49006 15.7389 6.62961 14.0774C4.42808 12.1205 2.15334 10.4797 2.15334 7.85699C2.09957 6.72439 2.49562 5.61644 3.25519 4.77459C4.01476 3.93274 5.07629 3.42522 6.20843 3.36263C6.83559 3.34362 7.45696 3.48768 8.01178 3.78071C8.5666 4.07375 9.03589 4.50574 9.37377 5.03445C10.0973 6.0465 10.2179 6.55295 10.3384 6.55295C10.459 6.55295 10.5779 6.0465 11.2945 5.03186C11.6305 4.50071 12.0999 4.06701 12.656 3.77409C13.2121 3.48118 13.8352 3.3393 14.4633 3.36263ZM14.4633 1.63999C13.6812 1.61495 12.9035 1.76668 12.1881 2.08387C11.4727 2.40107 10.8381 2.87556 10.3316 3.47202C9.82542 2.8773 9.19213 2.4039 8.47847 2.0868C7.76481 1.76971 6.98903 1.61701 6.20843 1.63999C4.61919 1.70214 3.11921 2.39105 2.0365 3.55608C0.953785 4.72111 0.37644 6.26746 0.430707 7.85699C0.430707 10.9663 2.62707 12.8759 4.75022 14.7217C4.99397 14.9336 5.24031 15.1472 5.48492 15.3651L6.3695 16.1558C7.33421 17.0738 8.34559 17.9414 9.39961 18.7552C9.67849 18.9358 10.0036 19.0319 10.3359 19.0319C10.6681 19.0319 10.9932 18.9358 11.2721 18.7552C12.3597 17.9165 13.4022 17.021 14.3953 16.0722L15.1894 15.3625C15.4418 15.1386 15.6976 14.9155 15.9517 14.6959C17.962 12.9517 20.241 10.975 20.241 7.85699C20.2953 6.26746 19.7179 4.72111 18.6352 3.55608C17.5525 2.39105 16.0525 1.70214 14.4633 1.63999Z" fill="rgb(38,38,38)" fill-rule="nonzero" />
</svg>
