<svg viewBox="0 0 96 96" xmlns="http://www.w3.org/2000/svg" xmlns:xlink="http://www.w3.org/1999/xlink" width="96.000000" height="96.000000" fill="none" customFrame="#000000">
	<rect id="Img - Trouble logging in?" width="96.000000" height="96.000000" x="0.000000" y="0.000000" />
	<path id="Vector" d="M48 95C22.0426 95 1 73.9574 1 48C1 22.0426 22.0426 1 48 1C73.9574 1 95 22.0426 95 48C95 73.9574 73.9574 95 48 95Z" stroke="rgb(0,0,0)" stroke-linecap="round" stroke-linejoin="round" stroke-width="2" />
	<path id="Vector" d="M35.0651 70.001C34.4037 70.0053 33.748 69.8792 33.1354 69.63C32.5228 69.3808 31.9653 69.0134 31.4947 68.5487C31.0241 68.084 30.6496 67.5312 30.3926 66.9218C30.1357 66.3124 30.0013 65.6584 29.9971 64.997L29.9971 46.0051C30.0011 45.3436 30.1354 44.6895 30.3923 44.08C30.6492 43.4705 31.0237 42.9175 31.4943 42.4528C31.965 41.988 32.5225 41.6205 33.1352 41.3712C33.7479 41.122 34.4036 40.9958 35.0651 41L60.9301 41C61.5913 40.996 62.2468 41.1222 62.8593 41.3714C63.4717 41.6207 64.029 41.9882 64.4995 42.4528C64.9699 42.9175 65.3442 43.4703 65.601 44.0796C65.8578 44.6889 65.992 45.3428 65.9961 46.0041L65.9961 64.996C65.992 65.6573 65.8578 66.3112 65.601 66.9205C65.3442 67.5298 64.9699 68.0826 64.4995 68.5473C64.029 69.0119 63.4717 69.3794 62.8593 69.6287C62.2468 69.8779 61.5913 70.0041 60.9301 70L60.9311 70.001L35.0651 70.001ZM37.9991 39.996L37.9991 32.998C37.9991 30.3459 39.0526 27.8023 40.928 25.927C42.8034 24.0516 45.3469 22.998 47.9991 22.998C50.6512 22.998 53.1948 24.0516 55.0701 25.927C56.9455 27.8023 57.9991 30.3459 57.9991 32.998L57.9991 39.996" fill-rule="nonzero" stroke="rgb(0,0,0)" stroke-linecap="round" stroke-linejoin="round" stroke-width="2" />
</svg>
