<svg viewBox="0 0 26.1794 24" xmlns="http://www.w3.org/2000/svg" xmlns:xlink="http://www.w3.org/1999/xlink" width="26.179382" height="24.000000" fill="none" customFrame="#000000">
	<rect id="Img - Уведомления" width="24.000000" height="24.000000" x="1.584686" y="0.000000" />
	<path id="Vector" d="M22.0904 5.64325C23.405 5.71593 20.4291 4.66562 21.3111 5.64325C22.193 6.62088 22.6529 7.90752 22.5905 9.22278C20.5903 12.6978 19.9382 14.1829 17.393 16.4465C14.8808 18.69 13.5277 19.9163 13.0897 20.1994C12.6126 19.8903 13.5897 21.1998 15.7836 18.5178C15.9625 18.2992 16.2102 20.5493 16.2102 17.5036C17.8031 16.0853 16.5111 17.4241 17.393 16.4465C18.275 15.4688 18.5901 15.6985 19.6102 14.6982C20.3094 13.8236 24.0906 8.69684 22.5905 9.22278C23.2347 9.56308 14.0898 11.6975 16.2102 12.4424C14.0898 11.6975 12.9497 20.1994 13.0897 20.1994C13.2297 20.1994 22.7585 10.4011 23.5905 9.22278C23.9806 8.60596 22.0805 7.53665 22.7261 7.19649C23.3718 6.85633 21.3612 5.61615 22.0904 5.64325ZM17.8821 2.00309C16.9739 1.97401 16.0709 2.15021 15.2403 2.51857C14.4097 2.88692 13.6729 3.43794 13.0847 4.13059C12.497 3.43996 11.7617 2.89021 10.9331 2.52197C10.1044 2.15373 9.20366 1.9764 8.2973 2.00309C6.45202 2.07526 4.71039 2.87528 3.45325 4.22821C2.19611 5.58114 1.52575 7.37689 1.58876 9.22278C1.58876 12.8336 4.13896 15.0511 6.60416 17.1946C6.88719 17.4407 7.17321 17.6888 7.45723 17.9418L8.48431 18.86C9.60445 19.9261 10.7788 20.9336 12.0026 21.8787C12.3264 22.0884 12.7039 22.2 13.0897 22.2C13.4754 22.2 13.853 22.0884 14.1768 21.8787C15.4396 20.9048 16.65 19.8647 17.8031 18.763L18.7251 17.9388C19.0182 17.6788 19.3152 17.4197 19.6102 17.1646C21.9444 15.1392 24.5906 12.8436 24.5906 9.22278C24.6536 7.37689 23.9833 5.58114 22.7261 4.22821C21.469 2.87528 19.7274 2.07526 17.8821 2.00309Z" fill="rgb(0,0,0)" fill-rule="nonzero" />
	<path id="Vector" d="M23.3306 7.82172C23.4607 7.89049 23.5792 7.97423 23.6858 8.07296C23.8501 8.22506 23.9775 8.40289 24.068 8.60645C24.176 8.84936 24.2214 9.10349 24.2042 9.36884C24.1905 9.57929 24.1376 9.78005 24.0456 9.97111C23.9029 10.2673 23.6786 10.5122 23.3724 10.7058C23.194 10.8187 22.9402 10.9394 22.6111 11.068C22.2887 11.194 21.6562 11.4131 20.7136 11.7254C19.9216 11.9878 19.3353 12.1866 18.9547 12.3217C18.3357 12.5415 17.8544 12.7303 17.5108 12.8881C17.342 12.9656 17.2124 13.0323 17.1221 13.0882C17.1003 13.1016 17.0875 13.1099 17.0838 13.1129C17.1222 13.082 17.1627 13.0392 17.2054 12.9846C17.3251 12.8313 17.4057 12.6519 17.4472 12.4466C17.4794 12.2875 17.4838 12.1269 17.4605 11.9649C17.4366 11.7989 17.3852 11.6425 17.3062 11.4958C17.2001 11.2985 17.0606 11.1427 16.8876 11.0283C16.8287 10.9894 16.7779 10.9624 16.7354 10.9474L15.6851 13.9374C15.8136 13.9826 15.9491 13.993 16.0914 13.9686C16.199 13.9502 16.2888 13.9162 16.3609 13.8665C16.3706 13.8598 16.3765 13.8554 16.3789 13.8532C16.369 13.8625 16.3567 13.876 16.342 13.8938C16.2919 13.9541 16.2372 14.0353 16.1779 14.1372C15.8886 14.6343 15.6077 15.403 15.3351 16.4432C15.1131 17.2903 14.9301 18.1834 14.7863 19.1225C14.7331 19.4698 14.6957 19.7573 14.674 19.9851C14.6669 20.0608 14.6631 20.1105 14.6626 20.1341C14.6634 20.0935 14.6605 20.0456 14.654 19.9904C14.6396 19.8672 14.6095 19.7459 14.5638 19.6265C14.4933 19.4424 14.3913 19.2771 14.258 19.1307C14.1285 18.9886 13.9781 18.874 13.8066 18.7867C13.5814 18.6721 13.3424 18.6148 13.0897 18.6148C12.8272 18.6148 12.5808 18.6761 12.3504 18.7987C12.2947 18.8283 12.2418 18.8608 12.1915 18.8961C12.1616 18.9172 12.1351 18.9374 12.1119 18.9569C12.1135 18.9555 12.1243 18.9456 12.144 18.9273C12.2099 18.8662 12.3077 18.772 12.4376 18.6447C12.7047 18.3827 13.074 18.0132 13.5455 17.5362C14.5368 16.5331 15.6683 15.3721 16.9399 14.0531C18.3327 12.6085 19.5062 11.3753 20.4603 10.3535C21.5322 9.20572 22.1441 8.52414 22.2962 8.30876L23.5905 9.22278L22.2513 8.37585C22.166 8.51075 22.1088 8.65718 22.0797 8.81514C22.0553 8.94765 22.0526 9.07814 22.0718 9.20663C22.0896 9.32663 22.1203 9.42355 22.1636 9.49739C22.1417 9.46 22.0481 9.34885 21.883 9.16395C21.752 9.01728 21.6542 8.90404 21.5894 8.82422C21.4404 8.64042 21.3228 8.46526 21.2367 8.29876C21.0321 7.90302 20.9634 7.50243 21.0307 7.097C21.0817 6.78952 21.2055 6.51436 21.4022 6.27152C21.5608 6.07561 21.7559 5.91664 21.9875 5.79462C21.8002 5.89332 21.6436 6.03393 21.5178 6.21646C21.3675 6.43441 21.2859 6.67466 21.273 6.93721C21.2649 7.10257 21.2859 7.25894 21.3359 7.40632C21.3577 7.47043 21.3826 7.52624 21.4107 7.57375C21.4011 7.55749 21.3148 7.46404 21.1519 7.29341C21.0398 7.17607 20.9568 7.08679 20.9029 7.02557C20.7625 6.86605 20.6521 6.71405 20.5717 6.56956C20.4665 6.38056 20.3977 6.18446 20.3652 5.98125C20.3351 5.79288 20.337 5.60574 20.3709 5.41981C20.4154 5.17532 20.5104 4.95258 20.6559 4.75161C20.7899 4.56655 20.9558 4.41558 21.1537 4.29872C21.291 4.21766 21.4381 4.15688 21.5951 4.1164C21.7695 4.07143 21.9542 4.05256 22.1492 4.05981C22.1824 4.06147 22.2026 4.06233 22.2097 4.06236C22.2033 4.06233 22.1936 4.06276 22.1805 4.06365C22.0499 4.07258 21.9137 4.10751 21.7721 4.16843C21.5585 4.26028 21.3748 4.3959 21.2209 4.57531C21.0988 4.71766 21.0055 4.87711 20.941 5.05368C20.8719 5.24279 20.8407 5.4379 20.8474 5.639C20.8568 5.92343 20.9379 6.18408 21.0905 6.42097C21.1603 6.52927 21.2414 6.62542 21.3339 6.7094C21.4024 6.7716 21.4702 6.8216 21.5374 6.8594C21.5472 6.86492 21.5557 6.86944 21.5629 6.87296L21.5618 6.87253C21.5285 6.85821 21.4867 6.84399 21.4362 6.82986C21.3903 6.81703 21.3564 6.80934 21.3344 6.8068C21.3518 6.80881 21.3751 6.80946 21.4044 6.80874C21.4981 6.80646 21.5964 6.78997 21.6991 6.75929C21.9647 6.67997 22.1904 6.53075 22.3764 6.31163C22.5116 6.15222 22.609 5.9722 22.6684 5.7716C22.7212 5.59331 22.7397 5.41259 22.724 5.22944C22.7064 5.02537 22.6504 4.84283 22.556 4.68183C22.5292 4.63597 22.5064 4.60265 22.4876 4.58188C23.0686 5.2259 23.5051 5.95632 23.797 6.77311C24.0889 7.5899 24.2143 8.4315 24.1732 9.29792L24.155 9.68091L23.9637 10.0132C23.7904 10.3144 23.5503 10.7354 23.2435 11.2762C22.7733 12.1051 22.4296 12.7006 22.2125 13.0625C21.8524 13.6628 21.5122 14.1865 21.1917 14.6335C20.8181 15.1548 20.4166 15.6508 19.9873 16.1213C19.5408 16.6107 19.0271 17.1138 18.446 17.6305L16.34 15.2624C16.8387 14.819 17.274 14.3933 17.6462 13.9855C17.9916 13.6068 18.3148 13.2075 18.616 12.7874C18.8862 12.4104 19.1791 11.9588 19.4948 11.4324C19.6988 11.0924 20.0295 10.5191 20.4871 9.71245C20.7971 9.16601 21.0405 8.7393 21.2172 8.43233L22.5905 9.22278L21.0077 9.14765C21.029 8.6988 20.9641 8.26282 20.8128 7.83969C20.6616 7.41658 20.4355 7.03822 20.1346 6.70462C19.7924 6.3253 19.603 5.9243 19.5666 5.50165C19.5481 5.28649 19.5692 5.07641 19.6299 4.8714C19.697 4.64489 19.807 4.44151 19.96 4.26126C20.1796 4.00237 20.457 3.82287 20.7922 3.72278C21.2114 3.59756 21.7106 3.61594 22.2898 3.77793C22.8004 3.92074 23.1919 4.11592 23.4645 4.36347C23.5774 4.46596 23.674 4.57963 23.7544 4.70447C23.918 4.95836 24.0048 5.23485 24.0147 5.53393C24.0216 5.74252 23.9893 5.94479 23.9178 6.14073C23.8508 6.32423 23.7535 6.49028 23.626 6.63887C23.4611 6.83107 23.2605 6.97798 23.0243 7.07961C22.8348 7.1611 22.6256 7.20967 22.3967 7.22532C22.2791 7.23336 22.1574 7.23382 22.0316 7.22668C22.1443 7.23087 22.2626 7.217 22.3865 7.18506C22.5189 7.15091 22.6451 7.09839 22.7651 7.0275C22.9462 6.92061 23.0987 6.78147 23.2228 6.6101C23.3586 6.4225 23.4472 6.21496 23.4887 5.98748C23.5195 5.81812 23.5215 5.64932 23.4946 5.48108C23.4682 5.31627 23.417 5.16552 23.341 5.02884C23.317 4.98567 23.2935 4.94913 23.2706 4.9192C23.2692 4.9174 23.268 4.91587 23.267 4.91462C23.2671 4.91471 23.2674 4.91508 23.268 4.91574C23.2713 4.91981 23.2759 4.92504 23.2815 4.93146C23.3071 4.96054 23.3612 5.01828 23.4437 5.10469C23.5807 5.24814 23.6852 5.36124 23.7572 5.444C23.9147 5.62506 24.0416 5.79689 24.1379 5.95951C24.357 6.32976 24.4572 6.70738 24.4383 7.09236C24.4217 7.43055 24.3179 7.73824 24.1267 8.01544C23.9577 8.26059 23.737 8.4549 23.4647 8.59836C23.6171 8.51808 23.7505 8.40726 23.865 8.2659C24.0194 8.07525 24.1167 7.85851 24.157 7.61569C24.1874 7.43248 24.1813 7.254 24.1387 7.08027C24.1172 6.99283 24.0882 6.91376 24.0517 6.84308C24.0393 6.81905 24.0287 6.80079 24.02 6.78832C24.0259 6.79673 24.0362 6.81007 24.051 6.82835C24.084 6.86902 24.1492 6.94391 24.2467 7.05303C24.378 7.20012 24.4778 7.31529 24.5459 7.39856C24.6881 7.57216 24.8049 7.73689 24.8964 7.89277C25.0605 8.1722 25.1638 8.45451 25.2062 8.73971C25.239 8.95936 25.2356 9.176 25.1962 9.38965C25.1514 9.63302 25.0625 9.85971 24.9297 10.0697L24.9082 10.1038L24.8849 10.1368C24.4597 10.7388 22.5719 12.7775 19.2213 16.2527C17.9406 17.5811 16.8 18.7514 15.7995 19.7638C15.3164 20.2526 14.9353 20.6338 14.6564 20.9074C14.5056 21.0552 14.3865 21.1697 14.2991 21.2508C14.2404 21.3052 14.1899 21.3501 14.1476 21.3856C13.8308 21.6511 13.4782 21.7839 13.0897 21.7839C12.8358 21.7839 12.5958 21.7263 12.3696 21.6112C12.1971 21.5235 12.0457 21.408 11.9153 21.2649C11.7801 21.1164 11.6764 20.9481 11.6043 20.7598C11.5555 20.6323 11.5229 20.4989 11.5066 20.3596C11.4963 20.2722 11.4922 20.177 11.4941 20.074C11.4961 19.9705 11.5044 19.8411 11.5192 19.6858C11.5465 19.3976 11.5914 19.0499 11.6538 18.6426C11.8143 17.5945 12.0196 16.5936 12.2695 15.6399C12.6151 14.3213 13.0048 13.289 13.4389 12.5432C13.7703 11.9737 14.1448 11.5451 14.5623 11.2572C14.8738 11.0425 15.2053 10.9051 15.557 10.8449C15.9545 10.7769 16.3473 10.8111 16.7354 10.9474L16.2102 12.4424L15.6851 13.9374C15.1394 13.7457 14.7495 13.4323 14.5154 12.9971C14.4171 12.8143 14.3532 12.6208 14.3238 12.4165C14.295 12.2168 14.3008 12.0175 14.341 11.8185C14.3983 11.5353 14.5204 11.274 14.7074 11.0345C14.8876 10.8036 15.137 10.5897 15.4553 10.3928C15.6567 10.2683 15.9011 10.1401 16.1885 10.0081C16.6178 9.81097 17.1864 9.58673 17.8942 9.33539C18.296 9.19271 18.9035 8.98664 19.7169 8.71716C20.6068 8.42236 21.187 8.22207 21.4577 8.1163C21.5451 8.08216 21.6153 8.05298 21.6684 8.02876C21.6859 8.02076 21.6992 8.01441 21.7083 8.0097C21.702 8.01295 21.692 8.01889 21.6784 8.02753C21.6295 8.05844 21.5802 8.09615 21.5303 8.14064C21.3893 8.26666 21.276 8.4184 21.1905 8.59586C21.1043 8.77482 21.0547 8.964 21.0418 9.1634C21.0253 9.4176 21.0688 9.66111 21.1723 9.89394C21.2583 10.0873 21.3785 10.2555 21.533 10.3985C21.6297 10.4881 21.7355 10.5632 21.8503 10.6238L23.3306 7.82172ZM18.4485 17.6283C18.2282 17.8251 17.9164 18.1037 17.5131 18.4643C16.3713 19.4851 15.6131 20.159 15.2386 20.4859C14.6166 21.0287 14.187 21.3768 13.9497 21.5302L12.2297 18.8685C12.3391 18.7978 12.6475 18.5411 13.1547 18.0983C13.5198 17.7797 14.2685 17.1142 15.4009 16.1018C15.8043 15.7411 16.1166 15.462 16.3376 15.2646L18.4485 17.6283ZM12.2281 21.5292C12.2737 21.5587 12.3263 21.5865 12.3859 21.6123C12.604 21.7071 12.8371 21.746 13.0852 21.7293C13.2879 21.7156 13.4809 21.6644 13.6642 21.5757C13.8107 21.5048 13.943 21.4135 14.0613 21.3016C14.2043 21.1664 14.3181 21.0099 14.4026 20.8321C14.5513 20.5194 14.5928 20.1933 14.527 19.8536C14.4922 19.6739 14.4281 19.5056 14.3348 19.3488C14.2103 19.1397 14.0491 18.9722 13.8512 18.8464C13.7225 18.7645 13.5935 18.7106 13.4645 18.6848C13.3935 18.6707 13.3305 18.6664 13.2753 18.672C13.2636 18.6731 13.2548 18.6745 13.2487 18.6759C13.2545 18.6745 13.2634 18.6715 13.2753 18.667C13.3368 18.6435 13.4107 18.6032 13.4971 18.5462C13.8104 18.3393 14.1638 17.9955 14.5571 17.5145C14.6629 17.3853 14.7849 17.2751 14.9233 17.184C15.1223 17.0529 15.3394 16.97 15.5745 16.9353C15.8181 16.8993 16.0575 16.9182 16.2927 16.9921C16.4627 17.0455 16.62 17.1251 16.7646 17.2308C16.9863 17.3929 17.163 17.606 17.2947 17.87C17.3488 17.9785 17.4089 18.1309 17.4749 18.3274C17.491 18.3754 17.5015 18.4059 17.5063 18.4191C17.497 18.3937 17.4806 18.3594 17.4572 18.3162C17.4066 18.2224 17.344 18.1336 17.2696 18.0497C17.1846 17.9539 17.0886 17.8698 16.9815 17.7974C16.7884 17.6668 16.5762 17.5837 16.345 17.5481C16.04 17.5011 15.7467 17.5406 15.4651 17.6668C15.2575 17.7598 15.079 17.8916 14.9298 18.062C14.8006 18.2096 14.7049 18.3727 14.6427 18.5512C14.623 18.6079 14.6082 18.6615 14.5986 18.7119C14.5969 18.7204 14.5956 18.7278 14.5947 18.7339C14.5946 18.7347 14.5945 18.7351 14.5945 18.7353C14.5947 18.7342 14.5948 18.7328 14.595 18.7311C14.5997 18.6917 14.6042 18.6295 14.6084 18.5444C14.6199 18.3112 14.6257 17.9643 14.6257 17.5036L14.6257 16.7929L15.1565 16.3203C15.5342 15.9839 15.8088 15.7501 15.9804 15.6189C16.1282 15.5059 16.2667 15.42 16.396 15.3612C16.5181 15.3057 16.6443 15.2659 16.7744 15.2418C16.9154 15.2157 17.0572 15.2088 17.1998 15.2209C17.4548 15.2425 17.6907 15.3211 17.9076 15.4566C18.1825 15.6284 18.3858 15.8624 18.5174 16.1588C18.6091 16.3654 18.6547 16.5819 18.6541 16.8081C18.6536 17.0058 18.6174 17.1972 18.5457 17.3824C18.4839 17.5418 18.3976 17.6905 18.2869 17.8284C18.2557 17.8673 18.2232 17.9043 18.1893 17.9394C18.1406 17.9899 18.0888 18.037 18.0339 18.0806C17.8858 18.1982 17.7219 18.2865 17.5423 18.3454C17.393 18.3944 17.2398 18.4206 17.0828 18.424C16.7846 18.4305 16.5067 18.3585 16.2492 18.2081C15.9465 18.0313 15.7267 17.7816 15.5897 17.4589C15.5079 17.2662 15.466 17.0651 15.4639 16.8557C15.4606 16.524 15.5525 16.2209 15.7396 15.9465C15.7664 15.9072 15.797 15.8664 15.8315 15.8241C15.8994 15.7407 16.0277 15.5943 16.2165 15.3851C16.4852 15.0872 16.7541 14.8353 17.023 14.6294C17.1871 14.5037 17.4028 14.3609 17.6699 14.201C17.8372 14.1008 17.9623 14.0205 18.0451 13.9602C18.1863 13.8575 18.3382 13.7263 18.5008 13.5669L19.6102 14.6982L18.3725 13.7088C18.5959 13.4294 18.9039 13.0175 19.2966 12.4729C19.8005 11.7742 20.2313 11.1443 20.5891 10.5833C21.0083 9.926 21.2681 9.46054 21.3687 9.18693C21.3735 9.17369 21.3766 9.16483 21.3779 9.16034C21.3734 9.17648 21.3692 9.1975 21.3653 9.2234C21.3553 9.29013 21.3524 9.36162 21.3565 9.43788C21.3648 9.5912 21.4002 9.74176 21.4629 9.88957C21.5619 10.1232 21.7131 10.3179 21.9164 10.4736C22.1088 10.621 22.3224 10.7137 22.5575 10.752C22.6954 10.7744 22.829 10.7756 22.9582 10.7556C23.0171 10.7465 23.0693 10.734 23.1147 10.7181L22.0662 7.72749C22.4119 7.60629 22.7453 7.5718 23.0663 7.62402C23.3553 7.67104 23.6144 7.78232 23.8436 7.95786C24.083 8.14126 24.262 8.3729 24.3807 8.65279C24.5158 8.9717 24.5554 9.31819 24.4995 9.69226C24.4721 9.87509 24.4201 10.071 24.3433 10.28C24.1639 10.7681 23.8032 11.4373 23.2611 12.2873C22.8709 12.8991 22.4062 13.5789 21.867 14.3265C21.4437 14.9136 21.104 15.3673 20.8479 15.6876L20.788 15.7625L20.7196 15.8296C20.4463 16.0976 20.1765 16.3285 19.9102 16.5224C19.7507 16.6385 19.5466 16.7709 19.298 16.9198C19.1342 17.0179 19.018 17.0932 18.9495 17.1456C18.8348 17.2334 18.7082 17.3542 18.5696 17.5078C18.4166 17.6774 18.323 17.7832 18.2888 17.8252C18.311 17.7979 18.334 17.7668 18.3578 17.7319C18.5444 17.4582 18.6361 17.1556 18.6328 16.824C18.6307 16.6146 18.5887 16.4135 18.5069 16.2208C18.37 15.8981 18.1502 15.6484 17.8475 15.4716C17.59 15.3212 17.3121 15.2492 17.0139 15.2557C16.8569 15.2591 16.7037 15.2853 16.5544 15.3343C16.3748 15.3932 16.211 15.4815 16.0629 15.599C16.0082 15.6425 15.9565 15.6894 15.908 15.7397C15.8752 15.7737 15.8444 15.8088 15.8155 15.8448C15.7218 15.9614 15.6469 16.0922 15.5908 16.2372C15.5208 16.4177 15.4856 16.6052 15.4851 16.7998C15.4845 17.0244 15.5298 17.2395 15.621 17.4449C15.7521 17.74 15.9545 17.9731 16.2283 18.1442C16.444 18.2789 16.6784 18.3571 16.9316 18.3786C17.0723 18.3905 17.2118 18.3837 17.3503 18.3581C17.475 18.3351 17.5942 18.2977 17.7079 18.246C17.7777 18.2142 17.8404 18.1797 17.896 18.1424C17.9029 18.1377 17.9085 18.1338 17.9129 18.1306C17.9118 18.1315 17.9093 18.1333 17.9056 18.1362C17.7967 18.2195 17.5828 18.4031 17.264 18.687L16.2102 17.5036L17.7948 17.5036C17.7948 18.0165 17.7877 18.4157 17.7736 18.7012C17.7658 18.8586 17.7553 18.993 17.742 19.1044C17.7201 19.2896 17.6845 19.4527 17.6354 19.5937C17.5626 19.8029 17.4555 19.9881 17.3143 20.1494C17.1592 20.3265 16.9748 20.463 16.7609 20.5588C16.4733 20.6877 16.1737 20.7281 15.8623 20.6802C15.6248 20.6436 15.4062 20.5577 15.2065 20.4227C15.093 20.3459 14.9903 20.2558 14.8986 20.1523C14.8112 20.0538 14.7349 19.9442 14.6696 19.8234C14.6076 19.7087 14.5413 19.5464 14.4708 19.3365C14.4541 19.2868 14.4428 19.2539 14.4369 19.2378C14.4358 19.2347 14.4349 19.2323 14.4342 19.2305C14.4344 19.2309 14.4348 19.232 14.4354 19.2336C14.4416 19.2486 14.4495 19.2657 14.459 19.2848C14.5565 19.4801 14.7015 19.6482 14.8942 19.789C15.0308 19.889 15.1803 19.9644 15.3427 20.0155C15.5701 20.0869 15.8018 20.1052 16.0379 20.0703C16.2653 20.0367 16.4748 19.9568 16.6663 19.8306C16.7971 19.7445 16.9117 19.6413 17.0101 19.5211C15.846 20.9442 14.7075 21.7121 13.5948 21.8249C13.3342 21.8513 13.0838 21.8405 12.8435 21.7924C12.5856 21.7409 12.3546 21.6502 12.1505 21.5204C11.924 21.3763 11.7443 21.1928 11.6115 20.9696C11.5163 20.8097 11.4511 20.6385 11.4158 20.4563C11.3495 20.1141 11.3911 19.7857 11.5407 19.4711C11.6257 19.2924 11.7401 19.1351 11.8839 18.9991C12.003 18.8865 12.1363 18.7945 12.2839 18.7231C12.4695 18.6332 12.6655 18.5814 12.8718 18.5674C13.242 18.5424 13.6018 18.6431 13.9513 18.8695L12.2281 21.5292ZM15.8827 3.96705C15.262 4.24228 14.732 4.63867 14.2925 5.15622L13.0859 6.57711L11.8779 5.15745C11.4385 4.6411 10.9091 4.24527 10.2896 3.96995C9.67008 3.69465 9.02154 3.56698 8.34395 3.58694C7.6408 3.61449 6.96486 3.77726 6.31613 4.07525C5.66739 4.37325 5.10001 4.78377 4.61402 5.3068C4.128 5.82984 3.76013 6.42584 3.51041 7.09479C3.26069 7.76375 3.148 8.45507 3.17236 9.16873L3.17329 9.19574L3.17329 9.22278C3.17329 9.89216 3.28604 10.5311 3.51155 11.1397C3.71795 11.6967 4.02884 12.255 4.4442 12.8144C4.81243 13.3103 5.29147 13.8431 5.8813 14.4128C6.25196 14.7708 6.83948 15.2995 7.64386 15.9989C7.66198 16.0147 7.68526 16.0349 7.71369 16.0596C8.06685 16.3666 8.33273 16.5996 8.51132 16.7588L9.5588 17.6952L9.57668 17.7122C10.6581 18.7414 11.7896 19.7122 12.9711 20.6246L12.0026 21.8787L12.8639 20.5487C12.9326 20.5932 13.0079 20.6155 13.0897 20.6155C13.1715 20.6155 13.2468 20.5932 13.3155 20.5487L14.1768 21.8787L13.2091 20.6241C14.4285 19.6835 15.5949 18.6813 16.7084 17.6174L16.7275 17.5992L17.6692 16.7574C17.9383 16.5186 18.2399 16.2547 18.5739 15.966L18.5731 15.9667C19.3427 15.2988 19.9095 14.7892 20.2733 14.4378C20.8571 13.8739 21.3345 13.3429 21.7055 12.8447C22.1283 12.2771 22.4458 11.7115 22.6578 11.1479C22.89 10.5309 23.0061 9.88923 23.0061 9.22278L23.0061 9.19571L23.007 9.16872C23.0314 8.45507 22.9187 7.76375 22.669 7.09479C22.4192 6.42584 22.0514 5.82984 21.5654 5.3068C21.0794 4.78377 20.512 4.37325 19.8632 4.07525C19.2145 3.77726 18.5335 3.61431 17.8201 3.58641C17.1491 3.56495 16.5033 3.69183 15.8827 3.96705L15.8827 3.96705ZM14.598 1.07008C15.66 0.599096 16.7753 0.382327 17.944 0.419776C19.0759 0.464046 20.1566 0.722615 21.1861 1.19548C22.2155 1.66834 23.1158 2.31972 23.8869 3.14962C24.658 3.9795 25.2417 4.92512 25.6379 5.98648C26.0341 7.04782 26.2129 8.1446 26.1742 9.27684L24.5906 9.22278L26.1751 9.22278C26.1751 10.2736 25.9914 11.2873 25.6238 12.264C25.3068 13.1065 24.8479 13.9311 24.247 14.7378C23.7732 15.3739 23.1825 16.0337 22.475 16.7171C22.2041 16.9788 21.8958 17.2637 21.5501 17.572C21.3477 17.7525 21.0476 18.0152 20.65 18.3603L20.6465 18.3633C20.3229 18.6431 20.0344 18.8954 19.7811 19.1202L18.859 19.9444L17.8031 18.763L18.8977 19.9086C17.7035 21.0497 16.4524 22.1247 15.1445 23.1334L15.0928 23.1733L15.0381 23.2088C14.7479 23.3967 14.437 23.5396 14.1055 23.6376C13.774 23.7355 13.4354 23.7845 13.0897 23.7845C12.744 23.7845 12.4054 23.7355 12.0739 23.6376C11.7423 23.5396 11.4315 23.3967 11.1413 23.2088L11.0861 23.173L11.0341 23.1328C9.76634 22.1538 8.55229 21.1121 7.39195 20.0079L8.48431 18.86L7.42824 20.0413L6.40315 19.1249C6.23423 18.9744 5.97808 18.7499 5.6347 18.4514C5.59955 18.4209 5.57614 18.4005 5.56447 18.3904C5.14762 18.0279 4.83471 17.7534 4.62573 17.5669C4.27023 17.2496 3.95488 16.958 3.6797 16.6923C2.96492 16.0019 2.37162 15.339 1.89982 14.7036C1.30452 13.9018 0.851227 13.0809 0.539943 12.2408C0.182801 11.277 0.00422943 10.271 0.00422943 9.22278L1.58876 9.22278L0.00515163 9.27684C-0.0334978 8.1446 0.145278 7.04782 0.541479 5.98648C0.937686 4.92512 1.52135 3.9795 2.29248 3.14962C3.06362 2.31972 3.9639 1.66834 4.99331 1.19548C6.02274 0.722615 7.10852 0.463872 8.25065 0.419252C9.40895 0.385139 10.5176 0.603382 11.5765 1.07398C12.6355 1.54457 13.5405 2.22115 14.2915 3.10373L13.0847 4.13059L11.8769 3.10496C12.6289 2.21935 13.5359 1.54106 14.598 1.07008L14.598 1.07008Z" fill="rgb(0,0,0)" fill-rule="nonzero" />
</svg>
